<svg xmlns="http://www.w3.org/2000/svg" version="1.1" xmlns:xlink="http://www.w3.org/1999/xlink" xmlns:svgjs="http://svgjs.dev/svgjs" width="1440" height="560" preserveAspectRatio="none" viewBox="0 0 1440 560"><g mask="url(&quot;#SvgjsMask1005&quot;)" fill="none"><rect width="1440" height="560" x="0" y="0" fill="rgba(100, 80, 188, 1)"></rect><path d="M 0,137 C 72,147.4 216,198 360,189 C 504,180 576,84.6 720,92 C 864,99.4 936,227.8 1080,226 C 1224,224.2 1368,111.6 1440,83L1440 560L0 560z" fill="rgba(85, 70, 153, 1)"></path><path d="M 0,526 C 96,502 288,403.4 480,406 C 672,408.6 768,563 960,539 C 1152,515 1344,336.6 1440,286L1440 560L0 560z" fill="rgba(61, 54, 92, 1)"></path></g><defs><mask id="SvgjsMask1005"><rect width="1440" height="560" fill="#ffffff"></rect></mask></defs></svg>